<?xml version="1.0" encoding="iso-8859-1"?>
<!-- Generator: Adobe Illustrator 19.0.0, SVG Export Plug-In . SVG Version: 6.00 Build 0)  -->
<svg version="1.1" id="Capa_1" xmlns="http://www.w3.org/2000/svg" xmlns:xlink="http://www.w3.org/1999/xlink" x="0px" y="0px"
	 viewBox="0 0 512 512" style="enable-background:new 0 0 512 512;" xml:space="preserve">
<linearGradient id="SVGID_1_" gradientUnits="userSpaceOnUse" x1="236.9375" y1="466.5675" x2="236.9375" y2="-208.2525" gradientTransform="matrix(1.0667 0 0 -1.0667 3.2667 557.5334)">
	<stop  offset="0" style="stop-color:#C69C6D"/>
	<stop  offset="1" style="stop-color:#A67C52"/>
</linearGradient>
<path style="fill:url(#SVGID_1_);" d="M455.026,507.17H56.974c-13.867,0-25.108-11.242-25.108-25.108V42.468
	c0-20.025,16.234-36.258,36.258-36.258h386.902c13.867,0,25.108,11.242,25.108,25.108v450.743
	C480.134,495.929,468.893,507.17,455.026,507.17z"/>
<linearGradient id="SVGID_2_" gradientUnits="userSpaceOnUse" x1="327.9375" y1="215.6275" x2="256.7775" y2="286.7875" gradientTransform="matrix(1.0667 0 0 -1.0667 3.2667 557.5334)">
	<stop  offset="0" style="stop-color:#C2CECE"/>
	<stop  offset="1" style="stop-color:#E8EFEE"/>
</linearGradient>
<circle style="fill:url(#SVGID_2_);" cx="256" cy="230.464" r="51.062"/>
<linearGradient id="SVGID_3_" gradientUnits="userSpaceOnUse" x1="320.0249" y1="96.4449" x2="228.1149" y2="188.3549" gradientTransform="matrix(1.0667 0 0 -1.0667 3.2667 557.5334)">
	<stop  offset="0" style="stop-color:#C2CECE"/>
	<stop  offset="1" style="stop-color:#E8EFEE"/>
</linearGradient>
<path style="fill:url(#SVGID_3_);" d="M350.533,380.895H161.467l0,0c0-39.633,32.129-71.763,71.763-71.763h45.542
	C318.404,309.132,350.533,341.262,350.533,380.895L350.533,380.895z"/>
<g>
	<path style="fill:#8C6239;" d="M66.932,86.254h-8.281c-1.906,0-3.451-1.545-3.451-3.451s1.545-3.45,3.451-3.45h8.281
		c1.906,0,3.45,1.545,3.45,3.45C70.383,84.709,68.838,86.254,66.932,86.254z"/>
	<path style="fill:#8C6239;" d="M429.596,491.989h-16.482c-1.906,0-3.45-1.545-3.45-3.45c0-1.905,1.545-3.45,3.45-3.45h16.482
		c1.906,0,3.45,1.545,3.45,3.45C433.045,490.445,431.502,491.989,429.596,491.989z M396.63,491.989h-16.482
		c-1.906,0-3.45-1.545-3.45-3.45c0-1.905,1.545-3.45,3.45-3.45h16.482c1.906,0,3.45,1.545,3.45,3.45
		C400.08,490.445,398.537,491.989,396.63,491.989z M363.664,491.989h-16.482c-1.906,0-3.451-1.545-3.451-3.45
		c0-1.905,1.545-3.45,3.451-3.45h16.482c1.906,0,3.45,1.545,3.45,3.45C367.114,490.445,365.57,491.989,363.664,491.989z
		 M330.7,491.989h-16.484c-1.906,0-3.451-1.545-3.451-3.45c0-1.905,1.545-3.45,3.451-3.45H330.7c1.906,0,3.45,1.545,3.45,3.45
		C334.149,490.445,332.605,491.989,330.7,491.989z M297.733,491.989h-16.482c-1.906,0-3.45-1.545-3.45-3.45
		c0-1.905,1.545-3.45,3.45-3.45h16.482c1.906,0,3.45,1.545,3.45,3.45C301.183,490.445,299.638,491.989,297.733,491.989z
		 M264.767,491.989h-16.482c-1.906,0-3.45-1.545-3.45-3.45c0-1.905,1.545-3.45,3.45-3.45h16.482c1.906,0,3.45,1.545,3.45,3.45
		C268.217,490.445,266.673,491.989,264.767,491.989z M231.802,491.989h-16.482c-1.906,0-3.45-1.545-3.45-3.45
		c0-1.905,1.545-3.45,3.45-3.45h16.482c1.906,0,3.45,1.545,3.45,3.45C235.251,490.445,233.708,491.989,231.802,491.989z
		 M198.835,491.989h-16.482c-1.906,0-3.45-1.545-3.45-3.45c0-1.905,1.545-3.45,3.45-3.45h16.482c1.906,0,3.45,1.545,3.45,3.45
		C202.285,490.445,200.741,491.989,198.835,491.989z M165.871,491.989h-16.484c-1.906,0-3.45-1.545-3.45-3.45
		c0-1.905,1.545-3.45,3.45-3.45h16.484c1.906,0,3.451,1.545,3.451,3.45C169.322,490.445,167.776,491.989,165.871,491.989z
		 M132.905,491.989h-16.482c-1.906,0-3.451-1.545-3.451-3.45c0-1.905,1.545-3.45,3.451-3.45h16.482c1.906,0,3.451,1.545,3.451,3.45
		C136.355,490.445,134.81,491.989,132.905,491.989z M99.938,491.989H83.456c-1.906,0-3.45-1.545-3.45-3.45
		c0-1.905,1.545-3.45,3.45-3.45h16.482c1.906,0,3.451,1.545,3.451,3.45C103.389,490.445,101.843,491.989,99.938,491.989z
		 M445.771,489.946c-1.283,0-2.515-0.719-3.11-1.952c-0.828-1.716-0.108-3.779,1.61-4.607c4.159-2.006,7.39-5.659,8.864-10.019
		c0.61-1.805,2.566-2.773,4.373-2.163c1.805,0.61,2.773,2.569,2.163,4.373c-2.065,6.106-6.585,11.218-12.403,14.023
		C446.784,489.836,446.274,489.946,445.771,489.946z M457.488,461.56c-1.906,0-3.45-1.545-3.45-3.45v-16.482
		c0-1.906,1.545-3.45,3.45-3.45s3.45,1.545,3.45,3.45v16.482C460.938,460.015,459.393,461.56,457.488,461.56z M457.488,428.594
		c-1.906,0-3.45-1.545-3.45-3.45v-16.483c0-1.906,1.545-3.45,3.45-3.45s3.45,1.545,3.45,3.45v16.483
		C460.938,427.05,459.393,428.594,457.488,428.594z M457.488,395.628c-1.906,0-3.45-1.545-3.45-3.45v-16.483
		c0-1.906,1.545-3.451,3.45-3.451s3.45,1.545,3.45,3.451v16.483C460.938,394.083,459.393,395.628,457.488,395.628z M457.488,362.662
		c-1.906,0-3.45-1.545-3.45-3.45V342.73c0-1.906,1.545-3.45,3.45-3.45s3.45,1.545,3.45,3.45v16.483
		C460.938,361.118,459.393,362.662,457.488,362.662z M457.488,329.697c-1.906,0-3.45-1.545-3.45-3.451v-16.483
		c0-1.906,1.545-3.45,3.45-3.45s3.45,1.545,3.45,3.45v16.483C460.938,328.153,459.393,329.697,457.488,329.697z M457.488,296.731
		c-1.906,0-3.45-1.545-3.45-3.45v-16.482c0-1.906,1.545-3.45,3.45-3.45s3.45,1.545,3.45,3.45v16.482
		C460.938,295.186,459.393,296.731,457.488,296.731z M457.488,263.765c-1.906,0-3.45-1.545-3.45-3.45v-16.482
		c0-1.906,1.545-3.45,3.45-3.45s3.45,1.545,3.45,3.45v16.482C460.938,262.221,459.393,263.765,457.488,263.765z M457.488,230.643
		c-1.906,0-3.45-1.545-3.45-3.451V210.71c0-1.906,1.545-3.451,3.45-3.451s3.45,1.545,3.45,3.451v16.482
		C460.938,229.099,459.393,230.643,457.488,230.643z M457.488,199.058c-1.906,0-3.45-1.545-3.45-3.451v-16.483
		c0-1.906,1.545-3.45,3.45-3.45s3.45,1.545,3.45,3.45v16.483C460.938,197.514,459.393,199.058,457.488,199.058z M457.488,166.093
		c-1.906,0-3.45-1.545-3.45-3.45V146.16c0-1.906,1.545-3.45,3.45-3.45s3.45,1.545,3.45,3.45v16.483
		C460.938,164.548,459.393,166.093,457.488,166.093z M457.488,133.126c-1.906,0-3.45-1.545-3.45-3.451v-16.483
		c0-1.906,1.545-3.451,3.45-3.451s3.45,1.545,3.45,3.451v16.483C460.938,131.582,459.393,133.126,457.488,133.126z M456.389,100.285
		c-1.437,0-2.778-0.905-3.267-2.339c-1.483-4.359-4.72-8.005-8.883-10.003c-1.717-0.825-2.442-2.885-1.617-4.603
		c0.823-1.717,2.879-2.444,4.604-1.618c5.823,2.795,10.353,7.899,12.43,14.002c0.613,1.805-0.352,3.764-2.157,4.378
		C457.132,100.225,456.757,100.285,456.389,100.285z M429.555,86.254h-16.482c-1.906,0-3.45-1.545-3.45-3.451s1.545-3.45,3.45-3.45
		h16.482c1.906,0,3.45,1.545,3.45,3.45C433.006,84.709,431.461,86.254,429.555,86.254z M396.59,86.254h-16.483
		c-1.906,0-3.45-1.545-3.45-3.451s1.545-3.45,3.45-3.45h16.484c1.906,0,3.45,1.545,3.45,3.45
		C400.041,84.709,398.496,86.254,396.59,86.254z M363.625,86.254h-16.482c-1.906,0-3.45-1.545-3.45-3.451s1.545-3.45,3.45-3.45
		h16.482c1.906,0,3.45,1.545,3.45,3.45C367.074,84.709,365.53,86.254,363.625,86.254z M330.658,86.254h-16.482
		c-1.906,0-3.451-1.545-3.451-3.451s1.545-3.45,3.451-3.45h16.482c1.906,0,3.45,1.545,3.45,3.45
		C334.108,84.709,332.563,86.254,330.658,86.254z M297.693,86.254h-16.482c-1.906,0-3.45-1.545-3.45-3.451s1.545-3.45,3.45-3.45
		h16.482c1.906,0,3.45,1.545,3.45,3.45C301.142,84.709,299.599,86.254,297.693,86.254z M264.726,86.254h-16.482
		c-1.906,0-3.45-1.545-3.45-3.451s1.545-3.45,3.45-3.45h16.482c1.906,0,3.45,1.545,3.45,3.45
		C268.177,84.709,266.633,86.254,264.726,86.254z M231.761,86.254h-16.484c-1.906,0-3.45-1.545-3.45-3.451s1.545-3.45,3.45-3.45
		h16.484c1.906,0,3.451,1.545,3.451,3.45C235.212,84.709,233.667,86.254,231.761,86.254z M198.795,86.254h-16.482
		c-1.906,0-3.45-1.545-3.45-3.451s1.545-3.45,3.45-3.45h16.482c1.906,0,3.451,1.545,3.451,3.45
		C202.245,84.709,200.701,86.254,198.795,86.254z M165.829,86.254h-16.482c-1.906,0-3.45-1.545-3.45-3.451s1.545-3.45,3.45-3.45
		h16.482c1.906,0,3.45,1.545,3.45,3.45C169.279,84.709,167.734,86.254,165.829,86.254z M132.864,86.254h-16.482
		c-1.906,0-3.451-1.545-3.451-3.451s1.545-3.45,3.451-3.45h16.482c1.906,0,3.45,1.545,3.45,3.45
		C136.314,84.709,134.769,86.254,132.864,86.254z M99.898,86.254H83.415c-1.906,0-3.451-1.545-3.451-3.451s1.545-3.45,3.451-3.45
		h16.482c1.906,0,3.451,1.545,3.451,3.45C103.348,84.709,101.804,86.254,99.898,86.254z"/>
	<path style="fill:#8C6239;" d="M66.932,491.989h-8.281c-1.906,0-3.451-1.545-3.451-3.45c0-1.905,1.545-3.45,3.451-3.45h8.281
		c1.906,0,3.45,1.545,3.45,3.45C70.382,490.445,68.838,491.989,66.932,491.989z"/>
</g>
<linearGradient id="SVGID_4_" gradientUnits="userSpaceOnUse" x1="221.3974" y1="524.4875" x2="264.9574" y2="404.3275" gradientTransform="matrix(1.0667 0 0 -1.0667 3.2667 557.5334)">
	<stop  offset="0" style="stop-color:#C69C6D;stop-opacity:0"/>
	<stop  offset="1" style="stop-color:#754C24"/>
</linearGradient>
<path style="fill:url(#SVGID_4_);" d="M31.866,42.468v18.254h416.59c17.495,0,31.679,14.183,31.679,31.679v6.962V31.318
	c0-13.867-11.242-25.108-25.108-25.108H68.124C48.099,6.21,31.866,22.444,31.866,42.468z"/>
<linearGradient id="SVGID_5_" gradientUnits="userSpaceOnUse" x1="193.5557" y1="465.6745" x2="116.9807" y2="345.5145" gradientTransform="matrix(1.0667 0 0 -1.0667 3.2667 557.5334)">
	<stop  offset="0" style="stop-color:#C69C6D;stop-opacity:0"/>
	<stop  offset="1" style="stop-color:#754C24"/>
</linearGradient>
<path style="fill:url(#SVGID_5_);" d="M121.568,6.21H68.124c-20.025,0-36.258,16.234-36.258,36.258v439.594
	c0,13.867,11.242,25.108,25.108,25.108h64.594V6.21z"/>
<linearGradient id="SVGID_6_" gradientUnits="userSpaceOnUse" x1="236.9375" y1="476.1415" x2="236.9375" y2="464.8745" gradientTransform="matrix(1.0667 0 0 -1.0667 3.2667 557.5334)">
	<stop  offset="0" style="stop-color:#FFFFFF"/>
	<stop  offset="1" style="stop-color:#E8EFEE"/>
</linearGradient>
<path style="fill:url(#SVGID_6_);" d="M49.278,42.736c0,9.619,7.771,17.429,17.39,17.471c76.809,0.327,381.788,0.516,381.788,0.516
	c5.134,0,9.978,1.229,14.267,3.396V40.608c0-9.649-7.822-17.471-17.471-17.471H66.749c-9.649,0-17.471,7.822-17.471,17.471
	C49.278,40.608,49.278,42.736,49.278,42.736z"/>
<linearGradient id="SVGID_7_" gradientUnits="userSpaceOnUse" x1="536.3939" y1="439.5294" x2="444.364" y2="319.3694" gradientTransform="matrix(1.0667 0 0 -1.0667 3.2667 557.5334)">
	<stop  offset="0" style="stop-color:#C69C6D;stop-opacity:0"/>
	<stop  offset="1" style="stop-color:#754C24"/>
</linearGradient>
<path style="fill:url(#SVGID_7_);" d="M480.134,92.395v389.673c0,13.856-11.247,25.103-25.103,25.103h-70.686V60.722h64.117
	C465.948,60.722,480.134,74.91,480.134,92.395z"/>
<linearGradient id="SVGID_8_" gradientUnits="userSpaceOnUse" x1="236.9375" y1="485.3375" x2="236.9375" y2="476.5575" gradientTransform="matrix(1.0667 0 0 -1.0667 3.2667 557.5334)">
	<stop  offset="0" style="stop-color:#FFFFFF"/>
	<stop  offset="1" style="stop-color:#E8EFEE"/>
</linearGradient>
<path style="fill:url(#SVGID_8_);" d="M462.718,40.602v23.516c-4.278-2.18-9.122-3.395-14.256-3.395h-1.09
	c-1.159-0.235-2.346-0.345-3.574-0.345H69.114c-10.916,0-19.79-8.846-19.831-19.762v-0.014c0-9.647,7.825-17.457,17.472-17.457
	h378.494C454.894,23.143,462.718,30.955,462.718,40.602z"/>
<linearGradient id="SVGID_9_" gradientUnits="userSpaceOnUse" x1="236.9375" y1="494.3125" x2="236.9375" y2="483.9155" gradientTransform="matrix(1.0667 0 0 -1.0667 3.2667 557.5334)">
	<stop  offset="0" style="stop-color:#FFFFFF"/>
	<stop  offset="1" style="stop-color:#E8EFEE"/>
</linearGradient>
<path style="fill:url(#SVGID_9_);" d="M445.251,23.137H66.749c-9.649,0-17.471,7.822-17.471,17.471v1.15h396.883
	c9.147,0,16.561,7.414,16.561,16.561l0,0V40.608C462.722,30.959,454.9,23.137,445.251,23.137z"/>
<linearGradient id="SVGID_10_" gradientUnits="userSpaceOnUse" x1="340.441" y1="154.3675" x2="340.441" y2="519.7885" gradientTransform="matrix(1.0667 0 0 -1.0667 3.2667 557.5334)">
	<stop  offset="0" style="stop-color:#FFC200"/>
	<stop  offset="0.446" style="stop-color:#FFC000"/>
	<stop  offset="0.606" style="stop-color:#FFB900"/>
	<stop  offset="0.685" style="stop-color:#FFB200"/>
	<stop  offset="0.728" style="stop-color:#FFAE00"/>
	<stop  offset="0.769" style="stop-color:#FFA301"/>
	<stop  offset="0.807" style="stop-color:#FF9102"/>
	<stop  offset="0.849" style="stop-color:#FF9C02"/>
	<stop  offset="1" style="stop-color:#FFC200"/>
	<stop  offset="1" style="stop-color:#FFC000"/>
	<stop  offset="1" style="stop-color:#FFB900"/>
	<stop  offset="1" style="stop-color:#FFAD01"/>
	<stop  offset="1" style="stop-color:#FF9C02"/>
	<stop  offset="1" style="stop-color:#FF9102"/>
</linearGradient>
<path style="fill:url(#SVGID_10_);" d="M377.444,0h-22.081c-3.811,0-6.9,3.089-6.9,6.9V505.1c0,3.811,3.089,6.9,6.9,6.9h22.081
	c3.811,0,6.9-3.089,6.9-6.9V6.9C384.345,3.089,381.255,0,377.444,0z"/>
<g>
</g>
<g>
</g>
<g>
</g>
<g>
</g>
<g>
</g>
<g>
</g>
<g>
</g>
<g>
</g>
<g>
</g>
<g>
</g>
<g>
</g>
<g>
</g>
<g>
</g>
<g>
</g>
<g>
</g>
</svg>
